<svg width="20" height="20" viewBox="0 0 20 20" fill="none" xmlns="http://www.w3.org/2000/svg">
<g clip-path="url(#clip0_158_6)">
<path fill-rule="evenodd" clip-rule="evenodd" d="M6.22087 0.888008C7.19837 0.843008 7.51004 0.833008 10 0.833008C12.49 0.833008 12.8017 0.843841 13.7784 0.888008C14.755 0.932174 15.4217 1.08801 16.005 1.31384C16.6159 1.54467 17.17 1.90551 17.6284 2.37217C18.095 2.82967 18.455 3.38301 18.685 3.99467C18.9117 4.57801 19.0667 5.24467 19.1117 6.21967C19.1567 7.19884 19.1667 7.51051 19.1667 9.99967C19.1667 12.4888 19.1559 12.8013 19.1117 13.7788C19.0675 14.7538 18.9117 15.4205 18.685 16.0038C18.4549 16.6155 18.0944 17.1698 17.6284 17.628C17.17 18.0947 16.6159 18.4547 16.005 18.6847C15.4217 18.9113 14.755 19.0663 13.78 19.1113C12.8017 19.1563 12.49 19.1663 10 19.1663C7.51004 19.1663 7.19837 19.1555 6.22087 19.1113C5.24587 19.0672 4.57921 18.9113 3.99587 18.6847C3.38418 18.4546 2.82994 18.094 2.37171 17.628C1.90552 17.1701 1.54466 16.6161 1.31421 16.0047C1.08837 15.4213 0.933374 14.7547 0.888374 13.7797C0.843374 12.8005 0.833374 12.4888 0.833374 9.99967C0.833374 7.51051 0.844207 7.19801 0.888374 6.22134C0.932541 5.24467 1.08837 4.57801 1.31421 3.99467C1.54491 3.38312 1.90606 2.82917 2.37254 2.37134C2.83021 1.90526 3.38386 1.5444 3.99504 1.31384C4.57837 1.08801 5.24587 0.933008 6.22087 0.888008ZM13.7034 2.53801C12.7367 2.49384 12.4467 2.48467 9.99921 2.48467C7.55171 2.48467 7.26171 2.49384 6.29504 2.53801C5.40087 2.57884 4.91587 2.72801 4.59254 2.85384C4.16504 3.02051 3.85921 3.21801 3.53837 3.53884C3.23398 3.8345 2.99989 4.19476 2.85337 4.59301C2.72754 4.91634 2.57837 5.40134 2.53754 6.29551C2.49337 7.26217 2.48421 7.55217 2.48421 9.99967C2.48421 12.4472 2.49337 12.7372 2.53754 13.7038C2.57837 14.598 2.72754 15.083 2.85337 15.4063C3.00004 15.8038 3.23421 16.1647 3.53837 16.4605C3.83421 16.7647 4.19504 16.9988 4.59254 17.1455C4.91587 17.2713 5.40087 17.4205 6.29504 17.4613C7.26171 17.5055 7.55087 17.5147 9.99921 17.5147C12.4475 17.5147 12.7367 17.5055 13.7034 17.4613C14.5975 17.4205 15.0825 17.2713 15.4059 17.1455C15.8334 16.9788 16.1392 16.7813 16.46 16.4605C16.7642 16.1647 16.9984 15.8038 17.145 15.4063C17.2709 15.083 17.42 14.598 17.4609 13.7038C17.505 12.7372 17.5142 12.4472 17.5142 9.99967C17.5142 7.55217 17.505 7.26217 17.4609 6.29551C17.42 5.40134 17.2709 4.91634 17.145 4.59301C16.9784 4.16551 16.7809 3.85967 16.46 3.53884C16.1644 3.23445 15.8041 3.00035 15.4059 2.85384C15.0825 2.72801 14.5975 2.57884 13.7034 2.53801ZM8.82837 12.8255C9.48226 13.0977 10.2104 13.1344 10.8883 12.9294C11.5663 12.7244 12.152 12.2904 12.5455 11.7015C12.9391 11.1126 13.1159 10.4054 13.0459 9.7006C12.9759 8.99579 12.6634 8.33715 12.1617 7.83717C11.8419 7.51757 11.4552 7.27285 11.0295 7.12063C10.6038 6.96841 10.1496 6.91248 9.69962 6.95685C9.24968 7.00123 8.81517 7.14482 8.42738 7.37728C8.03959 7.60974 7.70816 7.92529 7.45696 8.30122C7.20576 8.67714 7.04103 9.10408 6.97464 9.55131C6.90824 9.99854 6.94183 10.4549 7.07299 10.8876C7.20415 11.3203 7.42961 11.7185 7.73314 12.0536C8.03667 12.3887 8.41073 12.6523 8.82837 12.8255ZM6.66837 6.66801C7.10589 6.23049 7.62531 5.88343 8.19696 5.64664C8.7686 5.40986 9.38129 5.28799 10 5.28799C10.6188 5.28799 11.2315 5.40986 11.8031 5.64664C12.3748 5.88343 12.8942 6.23049 13.3317 6.66801C13.7692 7.10553 14.1163 7.62494 14.3531 8.19659C14.5899 8.76824 14.7117 9.38093 14.7117 9.99967C14.7117 10.6184 14.5899 11.2311 14.3531 11.8028C14.1163 12.3744 13.7692 12.8938 13.3317 13.3313C12.4481 14.215 11.2497 14.7114 10 14.7114C8.75042 14.7114 7.55199 14.215 6.66837 13.3313C5.78476 12.4477 5.28835 11.2493 5.28835 9.99967C5.28835 8.75006 5.78476 7.55162 6.66837 6.66801ZM15.7567 5.98967C15.8651 5.8874 15.9519 5.76441 16.012 5.62799C16.072 5.49156 16.104 5.34448 16.1062 5.19545C16.1084 5.04642 16.0806 4.89846 16.0246 4.76035C15.9686 4.62224 15.8854 4.49677 15.78 4.39137C15.6746 4.28598 15.5491 4.20281 15.411 4.14677C15.2729 4.09074 15.125 4.06299 14.9759 4.06516C14.8269 4.06733 14.6798 4.09939 14.5434 4.15942C14.407 4.21946 14.284 4.30625 14.1817 4.41467C13.9828 4.62553 13.8739 4.90561 13.8781 5.19545C13.8824 5.48529 13.9994 5.76207 14.2043 5.96704C14.4093 6.17201 14.6861 6.28903 14.9759 6.29326C15.2658 6.29748 15.5459 6.18858 15.7567 5.98967Z" fill="#096AC9"/>
</g>
<defs>
<clipPath id="clip0_158_6">
<rect width="20" height="20" fill="white"/>
</clipPath>
</defs>
</svg>
